<svg xmlns="http://www.w3.org/2000/svg" xmlns:xlink="http://www.w3.org/1999/xlink" viewBox="0 0 1096 774" width="1096" height="774" font-family="ui-sans-serif, system-ui, -apple-system, 'Segoe UI', Roboto, Helvetica, Arial, sans-serif" font-size="12" shape-rendering="geometricPrecision" text-rendering="geometricPrecision">
<rect x="0" y="0" width="1096" height="774" fill="#ffffff"/>
<defs>
<marker id="arr-IDENTITY" viewBox="0 0 10 10" refX="9" refY="5" markerWidth="6" markerHeight="6" orient="auto-start-reverse"><path d="M0,0 L10,5 L0,10 z" fill="#6b7280"/></marker>
<marker id="arr-EXPRESSION" viewBox="0 0 10 10" refX="9" refY="5" markerWidth="6" markerHeight="6" orient="auto-start-reverse"><path d="M0,0 L10,5 L0,10 z" fill="#2563eb"/></marker>
<marker id="arr-AGGREGATE" viewBox="0 0 10 10" refX="9" refY="5" markerWidth="6" markerHeight="6" orient="auto-start-reverse"><path d="M0,0 L10,5 L0,10 z" fill="#f59e0b"/></marker>
<marker id="arr-WINDOW" viewBox="0 0 10 10" refX="9" refY="5" markerWidth="6" markerHeight="6" orient="auto-start-reverse"><path d="M0,0 L10,5 L0,10 z" fill="#7c3aed"/></marker>
<marker id="arr-LITERAL" viewBox="0 0 10 10" refX="9" refY="5" markerWidth="6" markerHeight="6" orient="auto-start-reverse"><path d="M0,0 L10,5 L0,10 z" fill="#10b981"/></marker>
<marker id="arr-GROUPING" viewBox="0 0 10 10" refX="9" refY="5" markerWidth="6" markerHeight="6" orient="auto-start-reverse"><path d="M0,0 L10,5 L0,10 z" fill="#dc2626"/></marker>
<marker id="arr-GENERATOR" viewBox="0 0 10 10" refX="9" refY="5" markerWidth="6" markerHeight="6" orient="auto-start-reverse"><path d="M0,0 L10,5 L0,10 z" fill="#14b8a6"/></marker>
<marker id="arr-OUTER_REFERENCE" viewBox="0 0 10 10" refX="9" refY="5" markerWidth="6" markerHeight="6" orient="auto-start-reverse"><path d="M0,0 L10,5 L0,10 z" fill="#94a3b8"/></marker>
</defs>
<g><text x="28" y="46" font-size="18" font-weight="600" fill="#111827">Column lineage  ·  QUERY  ·  WithCTE</text><text x="28" y="66" font-size="11" fill="#374151">sources: spark_catalog.default.employees    columns: 4    CTEs: 2</text></g>
<g font-size="11" fill="#374151"><rect x="28.0" y="69.0" width="12" height="12" rx="2" fill="#6b7280"/><text x="46.0" y="78.0">IDENTITY</text><rect x="118.4" y="69.0" width="12" height="12" rx="2" fill="#2563eb"/><text x="136.4" y="78.0">EXPRESSION</text><rect x="222.4" y="69.0" width="12" height="12" rx="2" fill="#f59e0b"/><text x="240.4" y="78.0">AGGREGATE</text><rect x="319.6" y="69.0" width="12" height="12" rx="2" fill="#7c3aed"/><text x="337.6" y="78.0">WINDOW</text><rect x="396.4" y="69.0" width="12" height="12" rx="2" fill="#10b981"/><text x="414.4" y="78.0">LITERAL</text><rect x="480.0" y="69.0" width="12" height="12" rx="2" fill="#dc2626"/><text x="498.0" y="78.0">GROUPING</text><rect x="570.4" y="69.0" width="12" height="12" rx="2" fill="#14b8a6"/><text x="588.4" y="78.0">GENERATOR</text><rect x="667.6" y="69.0" width="12" height="12" rx="2" fill="#94a3b8"/><text x="685.6" y="78.0">OUTER_REFERENCE</text></g>
<g class="edges">
<path d="M 308.0 223.0 C 407.0 223.0, 429.0 164.0, 528.0 164.0" stroke="#6b7280" stroke-width="1.4" fill="none" opacity="0.85" marker-end="url(#arr-IDENTITY)"/>
<path d="M 308.0 179.0 C 407.0 179.0, 429.0 200.0, 528.0 200.0" stroke="#6b7280" stroke-width="1.4" fill="none" opacity="0.85" marker-end="url(#arr-IDENTITY)"/>
<path d="M 308.0 267.0 C 407.0 267.0, 429.0 236.0, 528.0 236.0" stroke="#f59e0b" stroke-width="1.4" fill="none" opacity="0.85" marker-end="url(#arr-AGGREGATE)"/>
<path d="M 308.0 267.0 C 407.0 267.0, 429.0 272.0, 528.0 272.0" stroke="#f59e0b" stroke-width="1.4" fill="none" opacity="0.85" marker-end="url(#arr-AGGREGATE)"/>
<path d="M 308.0 201.0 C 407.0 201.0, 429.0 362.0, 528.0 362.0" stroke="#6b7280" stroke-width="1.4" fill="none" opacity="0.85" marker-end="url(#arr-IDENTITY)"/>
<path d="M 308.0 223.0 C 407.0 223.0, 429.0 398.0, 528.0 398.0" stroke="#6b7280" stroke-width="1.4" fill="none" opacity="0.85" marker-end="url(#arr-IDENTITY)"/>
<path d="M 308.0 179.0 C 407.0 179.0, 429.0 434.0, 528.0 434.0" stroke="#6b7280" stroke-width="1.4" fill="none" opacity="0.85" marker-end="url(#arr-IDENTITY)"/>
<path d="M 308.0 267.0 C 407.0 267.0, 429.0 470.0, 528.0 470.0" stroke="#6b7280" stroke-width="1.4" fill="none" opacity="0.85" marker-end="url(#arr-IDENTITY)"/>
<path d="M 308.0 245.0 C 407.0 245.0, 429.0 506.0, 528.0 506.0" stroke="#6b7280" stroke-width="1.4" fill="none" opacity="0.85" marker-end="url(#arr-IDENTITY)"/>
<path d="M 308.0 157.0 C 407.0 157.0, 429.0 542.0, 528.0 542.0" stroke="#6b7280" stroke-width="1.4" fill="none" opacity="0.85" marker-end="url(#arr-IDENTITY)"/>
<path d="M 308.0 179.0 C 407.0 179.0, 429.0 632.0, 528.0 632.0" stroke="#6b7280" stroke-width="1.4" fill="none" opacity="0.85" marker-end="url(#arr-IDENTITY)"/>
<path d="M 308.0 267.0 C 407.0 267.0, 429.0 668.0, 528.0 668.0" stroke="#f59e0b" stroke-width="1.4" fill="none" opacity="0.85" marker-end="url(#arr-AGGREGATE)"/>
<path d="M 308.0 267.0 C 407.0 267.0, 429.0 704.0, 528.0 704.0" stroke="#f59e0b" stroke-width="1.4" fill="none" opacity="0.85" marker-end="url(#arr-AGGREGATE)"/>

</g>
<rect x="28" y="116" width="280" height="168" rx="6" fill="#fafafa" stroke="#cbd5e1" stroke-width="1"/><rect x="28" y="116" width="280" height="30" rx="6" fill="#1f2937"/><rect x="28" y="140" width="280" height="6" fill="#1f2937"/><text x="40" y="135" fill="#f9fafb" font-size="12" font-weight="600">spark_catalog.default.employees</text><rect x="29" y="146" width="278" height="22" fill="#ffffff"/><text x="42" y="161.0" fill="#111827" font-family="ui-monospace, SFMono-Regular, Menlo, Monaco, 'Cascadia Mono', 'Liberation Mono', Consolas, monospace" font-size="11.5">active</text><circle cx="308.0" cy="157.0" r="3" fill="#475569"/><rect x="29" y="168" width="278" height="22" fill="#f3f4f6"/><text x="42" y="183.0" fill="#111827" font-family="ui-monospace, SFMono-Regular, Menlo, Monaco, 'Cascadia Mono', 'Liberation Mono', Consolas, monospace" font-size="11.5">dept_id</text><circle cx="308.0" cy="179.0" r="3" fill="#475569"/><rect x="29" y="190" width="278" height="22" fill="#ffffff"/><text x="42" y="205.0" fill="#111827" font-family="ui-monospace, SFMono-Regular, Menlo, Monaco, 'Cascadia Mono', 'Liberation Mono', Consolas, monospace" font-size="11.5">emp_id</text><circle cx="308.0" cy="201.0" r="3" fill="#475569"/><rect x="29" y="212" width="278" height="22" fill="#f3f4f6"/><text x="42" y="227.0" fill="#111827" font-family="ui-monospace, SFMono-Regular, Menlo, Monaco, 'Cascadia Mono', 'Liberation Mono', Consolas, monospace" font-size="11.5">emp_name</text><circle cx="308.0" cy="223.0" r="3" fill="#475569"/><rect x="29" y="234" width="278" height="22" fill="#ffffff"/><text x="42" y="249.0" fill="#111827" font-family="ui-monospace, SFMono-Regular, Menlo, Monaco, 'Cascadia Mono', 'Liberation Mono', Consolas, monospace" font-size="11.5">hire_date</text><circle cx="308.0" cy="245.0" r="3" fill="#475569"/><rect x="29" y="256" width="278" height="22" fill="#f3f4f6"/><text x="42" y="271.0" fill="#111827" font-family="ui-monospace, SFMono-Regular, Menlo, Monaco, 'Cascadia Mono', 'Liberation Mono', Consolas, monospace" font-size="11.5">salary</text><circle cx="308.0" cy="267.0" r="3" fill="#475569"/>
<rect x="528" y="116" width="540" height="180" rx="6" fill="#fafafa" stroke="#cbd5e1" stroke-width="1"/><rect x="528" y="116" width="540" height="30" rx="6" fill="#1f2937"/><rect x="528" y="140" width="540" height="6" fill="#1f2937"/><text x="540" y="135" fill="#f9fafb" font-size="12" font-weight="600">Output</text><text x="1056" y="135" text-anchor="end" fill="#cbd5e1" font-size="11">QUERY :: WithCTE</text><rect x="529" y="146" width="538" height="36" fill="#ffffff"/><circle cx="528.0" cy="164.0" r="3" fill="#6b7280"/><rect x="538" y="151" width="64.8" height="14" rx="3" fill="#6b7280"/><text x="544" y="161.5" fill="white" font-size="10" font-weight="600">IDENTITY</text><text x="610.8" y="161.5" fill="#111827" font-family="ui-monospace, SFMono-Regular, Menlo, Monaco, 'Cascadia Mono', 'Liberation Mono', Consolas, monospace" font-size="11.5" font-weight="600">emp_name</text><text x="674.8" y="161.5" fill="#6b7280" font-family="ui-monospace, SFMono-Regular, Menlo, Monaco, 'Cascadia Mono', 'Liberation Mono', Consolas, monospace" font-size="10.5">::string</text><g><title>emp_name :: string
IDENTITY
spark_catalog.default.employees.emp_name
sources: spark_catalog.default.employees.emp_name</title><text x="546.0" y="174.0" fill="#6b7280" font-family="ui-monospace, SFMono-Regular, Menlo, Monaco, 'Cascadia Mono', 'Liberation Mono', Consolas, monospace" font-size="10.5">spark_catalog.default.employees.emp_name</text></g><rect x="529" y="182" width="538" height="36" fill="#f3f4f6"/><circle cx="528.0" cy="200.0" r="3" fill="#6b7280"/><rect x="538" y="187" width="64.8" height="14" rx="3" fill="#6b7280"/><text x="544" y="197.5" fill="white" font-size="10" font-weight="600">IDENTITY</text><text x="610.8" y="197.5" fill="#111827" font-family="ui-monospace, SFMono-Regular, Menlo, Monaco, 'Cascadia Mono', 'Liberation Mono', Consolas, monospace" font-size="11.5" font-weight="600">dept_id</text><text x="667.8" y="197.5" fill="#6b7280" font-family="ui-monospace, SFMono-Regular, Menlo, Monaco, 'Cascadia Mono', 'Liberation Mono', Consolas, monospace" font-size="10.5">::integer</text><g><title>dept_id :: integer
IDENTITY
spark_catalog.default.employees.dept_id
sources: spark_catalog.default.employees.dept_id</title><text x="546.0" y="210.0" fill="#6b7280" font-family="ui-monospace, SFMono-Regular, Menlo, Monaco, 'Cascadia Mono', 'Liberation Mono', Consolas, monospace" font-size="10.5">spark_catalog.default.employees.dept_id</text></g><rect x="529" y="218" width="538" height="36" fill="#ffffff"/><circle cx="528.0" cy="236.0" r="3" fill="#f59e0b"/><rect x="538" y="223" width="71.4" height="14" rx="3" fill="#f59e0b"/><text x="544" y="233.5" fill="white" font-size="10" font-weight="600">AGGREGATE</text><text x="617.4" y="233.5" fill="#111827" font-family="ui-monospace, SFMono-Regular, Menlo, Monaco, 'Cascadia Mono', 'Liberation Mono', Consolas, monospace" font-size="11.5" font-weight="600">total_salary</text><text x="709.4" y="233.5" fill="#6b7280" font-family="ui-monospace, SFMono-Regular, Menlo, Monaco, 'Cascadia Mono', 'Liberation Mono', Consolas, monospace" font-size="10.5">::decimal(22,2)</text><g><title>total_salary :: decimal(22,2)
AGGREGATE
SUM(active_emp.salary)
sources: spark_catalog.default.employees.salary</title><text x="546.0" y="246.0" fill="#6b7280" font-family="ui-monospace, SFMono-Regular, Menlo, Monaco, 'Cascadia Mono', 'Liberation Mono', Consolas, monospace" font-size="10.5">SUM(active_emp.salary)</text></g><rect x="529" y="254" width="538" height="36" fill="#f3f4f6"/><circle cx="528.0" cy="272.0" r="3" fill="#f59e0b"/><rect x="538" y="259" width="71.4" height="14" rx="3" fill="#f59e0b"/><text x="544" y="269.5" fill="white" font-size="10" font-weight="600">AGGREGATE</text><text x="617.4" y="269.5" fill="#111827" font-family="ui-monospace, SFMono-Regular, Menlo, Monaco, 'Cascadia Mono', 'Liberation Mono', Consolas, monospace" font-size="11.5" font-weight="600">avg_salary</text><text x="695.4" y="269.5" fill="#6b7280" font-family="ui-monospace, SFMono-Regular, Menlo, Monaco, 'Cascadia Mono', 'Liberation Mono', Consolas, monospace" font-size="10.5">::decimal(16,6)</text><g><title>avg_salary :: decimal(16,6)
AGGREGATE
AVG(active_emp.salary)
sources: spark_catalog.default.employees.salary</title><text x="546.0" y="282.0" fill="#6b7280" font-family="ui-monospace, SFMono-Regular, Menlo, Monaco, 'Cascadia Mono', 'Liberation Mono', Consolas, monospace" font-size="10.5">AVG(active_emp.salary)</text></g>
<rect x="528" y="314" width="540" height="252" rx="6" fill="#fafafa" stroke="#cbd5e1" stroke-width="1"/><rect x="528" y="314" width="540" height="30" rx="6" fill="#1f2937"/><rect x="528" y="338" width="540" height="6" fill="#1f2937"/><text x="540" y="333" fill="#f9fafb" font-size="12" font-weight="600">CTE  ·  active_emp</text><text x="1056" y="333" text-anchor="end" fill="#cbd5e1" font-size="11">WITH active_emp</text><rect x="529" y="344" width="538" height="36" fill="#ffffff"/><circle cx="528.0" cy="362.0" r="3" fill="#6b7280"/><rect x="538" y="349" width="64.8" height="14" rx="3" fill="#6b7280"/><text x="544" y="359.5" fill="white" font-size="10" font-weight="600">IDENTITY</text><text x="610.8" y="359.5" fill="#111827" font-family="ui-monospace, SFMono-Regular, Menlo, Monaco, 'Cascadia Mono', 'Liberation Mono', Consolas, monospace" font-size="11.5" font-weight="600">emp_id</text><text x="660.8" y="359.5" fill="#6b7280" font-family="ui-monospace, SFMono-Regular, Menlo, Monaco, 'Cascadia Mono', 'Liberation Mono', Consolas, monospace" font-size="10.5">::integer</text><g><title>emp_id :: integer
IDENTITY
spark_catalog.default.employees.emp_id
sources: spark_catalog.default.employees.emp_id</title><text x="546.0" y="372.0" fill="#6b7280" font-family="ui-monospace, SFMono-Regular, Menlo, Monaco, 'Cascadia Mono', 'Liberation Mono', Consolas, monospace" font-size="10.5">spark_catalog.default.employees.emp_id</text></g><rect x="529" y="380" width="538" height="36" fill="#f3f4f6"/><circle cx="528.0" cy="398.0" r="3" fill="#6b7280"/><rect x="538" y="385" width="64.8" height="14" rx="3" fill="#6b7280"/><text x="544" y="395.5" fill="white" font-size="10" font-weight="600">IDENTITY</text><text x="610.8" y="395.5" fill="#111827" font-family="ui-monospace, SFMono-Regular, Menlo, Monaco, 'Cascadia Mono', 'Liberation Mono', Consolas, monospace" font-size="11.5" font-weight="600">emp_name</text><text x="674.8" y="395.5" fill="#6b7280" font-family="ui-monospace, SFMono-Regular, Menlo, Monaco, 'Cascadia Mono', 'Liberation Mono', Consolas, monospace" font-size="10.5">::string</text><g><title>emp_name :: string
IDENTITY
spark_catalog.default.employees.emp_name
sources: spark_catalog.default.employees.emp_name</title><text x="546.0" y="408.0" fill="#6b7280" font-family="ui-monospace, SFMono-Regular, Menlo, Monaco, 'Cascadia Mono', 'Liberation Mono', Consolas, monospace" font-size="10.5">spark_catalog.default.employees.emp_name</text></g><rect x="529" y="416" width="538" height="36" fill="#ffffff"/><circle cx="528.0" cy="434.0" r="3" fill="#6b7280"/><rect x="538" y="421" width="64.8" height="14" rx="3" fill="#6b7280"/><text x="544" y="431.5" fill="white" font-size="10" font-weight="600">IDENTITY</text><text x="610.8" y="431.5" fill="#111827" font-family="ui-monospace, SFMono-Regular, Menlo, Monaco, 'Cascadia Mono', 'Liberation Mono', Consolas, monospace" font-size="11.5" font-weight="600">dept_id</text><text x="667.8" y="431.5" fill="#6b7280" font-family="ui-monospace, SFMono-Regular, Menlo, Monaco, 'Cascadia Mono', 'Liberation Mono', Consolas, monospace" font-size="10.5">::integer</text><g><title>dept_id :: integer
IDENTITY
spark_catalog.default.employees.dept_id
sources: spark_catalog.default.employees.dept_id</title><text x="546.0" y="444.0" fill="#6b7280" font-family="ui-monospace, SFMono-Regular, Menlo, Monaco, 'Cascadia Mono', 'Liberation Mono', Consolas, monospace" font-size="10.5">spark_catalog.default.employees.dept_id</text></g><rect x="529" y="452" width="538" height="36" fill="#f3f4f6"/><circle cx="528.0" cy="470.0" r="3" fill="#6b7280"/><rect x="538" y="457" width="64.8" height="14" rx="3" fill="#6b7280"/><text x="544" y="467.5" fill="white" font-size="10" font-weight="600">IDENTITY</text><text x="610.8" y="467.5" fill="#111827" font-family="ui-monospace, SFMono-Regular, Menlo, Monaco, 'Cascadia Mono', 'Liberation Mono', Consolas, monospace" font-size="11.5" font-weight="600">salary</text><text x="660.8" y="467.5" fill="#6b7280" font-family="ui-monospace, SFMono-Regular, Menlo, Monaco, 'Cascadia Mono', 'Liberation Mono', Consolas, monospace" font-size="10.5">::decimal(12,2)</text><g><title>salary :: decimal(12,2)
IDENTITY
spark_catalog.default.employees.salary
sources: spark_catalog.default.employees.salary</title><text x="546.0" y="480.0" fill="#6b7280" font-family="ui-monospace, SFMono-Regular, Menlo, Monaco, 'Cascadia Mono', 'Liberation Mono', Consolas, monospace" font-size="10.5">spark_catalog.default.employees.salary</text></g><rect x="529" y="488" width="538" height="36" fill="#ffffff"/><circle cx="528.0" cy="506.0" r="3" fill="#6b7280"/><rect x="538" y="493" width="64.8" height="14" rx="3" fill="#6b7280"/><text x="544" y="503.5" fill="white" font-size="10" font-weight="600">IDENTITY</text><text x="610.8" y="503.5" fill="#111827" font-family="ui-monospace, SFMono-Regular, Menlo, Monaco, 'Cascadia Mono', 'Liberation Mono', Consolas, monospace" font-size="11.5" font-weight="600">hire_date</text><text x="681.8" y="503.5" fill="#6b7280" font-family="ui-monospace, SFMono-Regular, Menlo, Monaco, 'Cascadia Mono', 'Liberation Mono', Consolas, monospace" font-size="10.5">::date</text><g><title>hire_date :: date
IDENTITY
spark_catalog.default.employees.hire_date
sources: spark_catalog.default.employees.hire_date</title><text x="546.0" y="516.0" fill="#6b7280" font-family="ui-monospace, SFMono-Regular, Menlo, Monaco, 'Cascadia Mono', 'Liberation Mono', Consolas, monospace" font-size="10.5">spark_catalog.default.employees.hire_date</text></g><rect x="529" y="524" width="538" height="36" fill="#f3f4f6"/><circle cx="528.0" cy="542.0" r="3" fill="#6b7280"/><rect x="538" y="529" width="64.8" height="14" rx="3" fill="#6b7280"/><text x="544" y="539.5" fill="white" font-size="10" font-weight="600">IDENTITY</text><text x="610.8" y="539.5" fill="#111827" font-family="ui-monospace, SFMono-Regular, Menlo, Monaco, 'Cascadia Mono', 'Liberation Mono', Consolas, monospace" font-size="11.5" font-weight="600">active</text><text x="660.8" y="539.5" fill="#6b7280" font-family="ui-monospace, SFMono-Regular, Menlo, Monaco, 'Cascadia Mono', 'Liberation Mono', Consolas, monospace" font-size="10.5">::boolean</text><g><title>active :: boolean
IDENTITY
spark_catalog.default.employees.active
sources: spark_catalog.default.employees.active</title><text x="546.0" y="552.0" fill="#6b7280" font-family="ui-monospace, SFMono-Regular, Menlo, Monaco, 'Cascadia Mono', 'Liberation Mono', Consolas, monospace" font-size="10.5">spark_catalog.default.employees.active</text></g>
<rect x="528" y="584" width="540" height="144" rx="6" fill="#fafafa" stroke="#cbd5e1" stroke-width="1"/><rect x="528" y="584" width="540" height="30" rx="6" fill="#1f2937"/><rect x="528" y="608" width="540" height="6" fill="#1f2937"/><text x="540" y="603" fill="#f9fafb" font-size="12" font-weight="600">CTE  ·  dept_salary</text><text x="1056" y="603" text-anchor="end" fill="#cbd5e1" font-size="11">WITH dept_salary</text><rect x="529" y="614" width="538" height="36" fill="#ffffff"/><circle cx="528.0" cy="632.0" r="3" fill="#6b7280"/><rect x="538" y="619" width="64.8" height="14" rx="3" fill="#6b7280"/><text x="544" y="629.5" fill="white" font-size="10" font-weight="600">IDENTITY</text><text x="610.8" y="629.5" fill="#111827" font-family="ui-monospace, SFMono-Regular, Menlo, Monaco, 'Cascadia Mono', 'Liberation Mono', Consolas, monospace" font-size="11.5" font-weight="600">dept_id</text><text x="667.8" y="629.5" fill="#6b7280" font-family="ui-monospace, SFMono-Regular, Menlo, Monaco, 'Cascadia Mono', 'Liberation Mono', Consolas, monospace" font-size="10.5">::integer</text><g><title>dept_id :: integer
IDENTITY
spark_catalog.default.employees.dept_id
sources: spark_catalog.default.employees.dept_id</title><text x="546.0" y="642.0" fill="#6b7280" font-family="ui-monospace, SFMono-Regular, Menlo, Monaco, 'Cascadia Mono', 'Liberation Mono', Consolas, monospace" font-size="10.5">spark_catalog.default.employees.dept_id</text></g><rect x="529" y="650" width="538" height="36" fill="#f3f4f6"/><circle cx="528.0" cy="668.0" r="3" fill="#f59e0b"/><rect x="538" y="655" width="71.4" height="14" rx="3" fill="#f59e0b"/><text x="544" y="665.5" fill="white" font-size="10" font-weight="600">AGGREGATE</text><text x="617.4" y="665.5" fill="#111827" font-family="ui-monospace, SFMono-Regular, Menlo, Monaco, 'Cascadia Mono', 'Liberation Mono', Consolas, monospace" font-size="11.5" font-weight="600">total_salary</text><g><title>total_salary :: 
AGGREGATE
SUM(active_emp.salary)
sources: spark_catalog.default.employees.salary</title><text x="546.0" y="678.0" fill="#6b7280" font-family="ui-monospace, SFMono-Regular, Menlo, Monaco, 'Cascadia Mono', 'Liberation Mono', Consolas, monospace" font-size="10.5">SUM(active_emp.salary)</text></g><rect x="529" y="686" width="538" height="36" fill="#ffffff"/><circle cx="528.0" cy="704.0" r="3" fill="#f59e0b"/><rect x="538" y="691" width="71.4" height="14" rx="3" fill="#f59e0b"/><text x="544" y="701.5" fill="white" font-size="10" font-weight="600">AGGREGATE</text><text x="617.4" y="701.5" fill="#111827" font-family="ui-monospace, SFMono-Regular, Menlo, Monaco, 'Cascadia Mono', 'Liberation Mono', Consolas, monospace" font-size="11.5" font-weight="600">avg_salary</text><g><title>avg_salary :: 
AGGREGATE
AVG(active_emp.salary)
sources: spark_catalog.default.employees.salary</title><text x="546.0" y="714.0" fill="#6b7280" font-family="ui-monospace, SFMono-Regular, Menlo, Monaco, 'Cascadia Mono', 'Liberation Mono', Consolas, monospace" font-size="10.5">AVG(active_emp.salary)</text></g>
</svg>
