<svg xmlns="http://www.w3.org/2000/svg" xmlns:xlink="http://www.w3.org/1999/xlink" viewBox="0 0 1096 306" width="1096" height="306" font-family="ui-sans-serif, system-ui, -apple-system, 'Segoe UI', Roboto, Helvetica, Arial, sans-serif" font-size="12" shape-rendering="geometricPrecision" text-rendering="geometricPrecision">
<rect x="0" y="0" width="1096" height="306" fill="#ffffff"/>
<defs>
<marker id="arr-IDENTITY" viewBox="0 0 10 10" refX="9" refY="5" markerWidth="6" markerHeight="6" orient="auto-start-reverse"><path d="M0,0 L10,5 L0,10 z" fill="#6b7280"/></marker>
<marker id="arr-EXPRESSION" viewBox="0 0 10 10" refX="9" refY="5" markerWidth="6" markerHeight="6" orient="auto-start-reverse"><path d="M0,0 L10,5 L0,10 z" fill="#2563eb"/></marker>
<marker id="arr-AGGREGATE" viewBox="0 0 10 10" refX="9" refY="5" markerWidth="6" markerHeight="6" orient="auto-start-reverse"><path d="M0,0 L10,5 L0,10 z" fill="#f59e0b"/></marker>
<marker id="arr-WINDOW" viewBox="0 0 10 10" refX="9" refY="5" markerWidth="6" markerHeight="6" orient="auto-start-reverse"><path d="M0,0 L10,5 L0,10 z" fill="#7c3aed"/></marker>
<marker id="arr-LITERAL" viewBox="0 0 10 10" refX="9" refY="5" markerWidth="6" markerHeight="6" orient="auto-start-reverse"><path d="M0,0 L10,5 L0,10 z" fill="#10b981"/></marker>
<marker id="arr-GROUPING" viewBox="0 0 10 10" refX="9" refY="5" markerWidth="6" markerHeight="6" orient="auto-start-reverse"><path d="M0,0 L10,5 L0,10 z" fill="#dc2626"/></marker>
<marker id="arr-GENERATOR" viewBox="0 0 10 10" refX="9" refY="5" markerWidth="6" markerHeight="6" orient="auto-start-reverse"><path d="M0,0 L10,5 L0,10 z" fill="#14b8a6"/></marker>
<marker id="arr-OUTER_REFERENCE" viewBox="0 0 10 10" refX="9" refY="5" markerWidth="6" markerHeight="6" orient="auto-start-reverse"><path d="M0,0 L10,5 L0,10 z" fill="#94a3b8"/></marker>
</defs>
<g><text x="28" y="46" font-size="18" font-weight="600" fill="#111827">Column lineage  ·  QUERY  ·  Project</text><text x="28" y="66" font-size="11" fill="#374151">sources: —    columns: 3</text></g>
<g font-size="11" fill="#374151"><rect x="28.0" y="69.0" width="12" height="12" rx="2" fill="#6b7280"/><text x="46.0" y="78.0">IDENTITY</text><rect x="118.4" y="69.0" width="12" height="12" rx="2" fill="#2563eb"/><text x="136.4" y="78.0">EXPRESSION</text><rect x="222.4" y="69.0" width="12" height="12" rx="2" fill="#f59e0b"/><text x="240.4" y="78.0">AGGREGATE</text><rect x="319.6" y="69.0" width="12" height="12" rx="2" fill="#7c3aed"/><text x="337.6" y="78.0">WINDOW</text><rect x="396.4" y="69.0" width="12" height="12" rx="2" fill="#10b981"/><text x="414.4" y="78.0">LITERAL</text><rect x="480.0" y="69.0" width="12" height="12" rx="2" fill="#dc2626"/><text x="498.0" y="78.0">GROUPING</text><rect x="570.4" y="69.0" width="12" height="12" rx="2" fill="#14b8a6"/><text x="588.4" y="78.0">GENERATOR</text><rect x="667.6" y="69.0" width="12" height="12" rx="2" fill="#94a3b8"/><text x="685.6" y="78.0">OUTER_REFERENCE</text></g>
<g class="edges">

</g>
<rect x="528" y="116" width="540" height="144" rx="6" fill="#fafafa" stroke="#cbd5e1" stroke-width="1"/><rect x="528" y="116" width="540" height="30" rx="6" fill="#1f2937"/><rect x="528" y="140" width="540" height="6" fill="#1f2937"/><text x="540" y="135" fill="#f9fafb" font-size="12" font-weight="600">Output</text><text x="1056" y="135" text-anchor="end" fill="#cbd5e1" font-size="11">QUERY :: Project</text><rect x="529" y="146" width="538" height="36" fill="#ffffff"/><circle cx="528.0" cy="164.0" r="3" fill="#2563eb"/><rect x="538" y="151" width="78.0" height="14" rx="3" fill="#2563eb"/><text x="544" y="161.5" fill="white" font-size="10" font-weight="600">EXPRESSION</text><text x="624.0" y="161.5" fill="#111827" font-family="ui-monospace, SFMono-Regular, Menlo, Monaco, 'Cascadia Mono', 'Liberation Mono', Consolas, monospace" font-size="11.5" font-weight="600">plus_2h</text><text x="681.0" y="161.5" fill="#6b7280" font-family="ui-monospace, SFMono-Regular, Menlo, Monaco, 'Cascadia Mono', 'Liberation Mono', Consolas, monospace" font-size="10.5">::timestamp</text><g><title>plus_2h :: timestamp
EXPRESSION
CAST(+(TIMESTAMP &#x27;2024-01-01 10:00:00&#x27;, INTERVAL &#x27;7200000000&#x27;) AS timestamp)
sources: —</title><text x="546.0" y="174.0" fill="#6b7280" font-family="ui-monospace, SFMono-Regular, Menlo, Monaco, 'Cascadia Mono', 'Liberation Mono', Consolas, monospace" font-size="10.5">CAST(+(TIMESTAMP &#x27;2024-01-01 10:00:00&#x27;, INTERVAL &#x27;7200000000&#x27;) AS timestamp)</text></g><rect x="529" y="182" width="538" height="36" fill="#f3f4f6"/><circle cx="528.0" cy="200.0" r="3" fill="#2563eb"/><rect x="538" y="187" width="78.0" height="14" rx="3" fill="#2563eb"/><text x="544" y="197.5" fill="white" font-size="10" font-weight="600">EXPRESSION</text><text x="624.0" y="197.5" fill="#111827" font-family="ui-monospace, SFMono-Regular, Menlo, Monaco, 'Cascadia Mono', 'Liberation Mono', Consolas, monospace" font-size="11.5" font-weight="600">minus_30m</text><text x="695.0" y="197.5" fill="#6b7280" font-family="ui-monospace, SFMono-Regular, Menlo, Monaco, 'Cascadia Mono', 'Liberation Mono', Consolas, monospace" font-size="10.5">::timestamp</text><g><title>minus_30m :: timestamp
EXPRESSION
CAST(-(+(TIMESTAMP &#x27;2024-01-01 10:00:00&#x27;, (-INTERVAL &#x27;1800000000&#x27;))) AS timestamp)
sources: —</title><text x="546.0" y="210.0" fill="#6b7280" font-family="ui-monospace, SFMono-Regular, Menlo, Monaco, 'Cascadia Mono', 'Liberation Mono', Consolas, monospace" font-size="10.5">CAST(-(+(TIMESTAMP &#x27;2024-01-01 10:00:00&#x27;, (-INTERVAL &#x27;1800000000&#x27;))) AS times…</text></g><rect x="529" y="218" width="538" height="36" fill="#ffffff"/><circle cx="528.0" cy="236.0" r="3" fill="#2563eb"/><rect x="538" y="223" width="78.0" height="14" rx="3" fill="#2563eb"/><text x="544" y="233.5" fill="white" font-size="10" font-weight="600">EXPRESSION</text><text x="624.0" y="233.5" fill="#111827" font-family="ui-monospace, SFMono-Regular, Menlo, Monaco, 'Cascadia Mono', 'Liberation Mono', Consolas, monospace" font-size="11.5" font-weight="600">plus_7d</text><g><title>plus_7d :: 
EXPRESSION
DATE_ADD(DATE &#x27;2024-01-01&#x27;, EXTRACT_DAYS(INTERVAL &#x27;604800000000&#x27;))
sources: —</title><text x="546.0" y="246.0" fill="#6b7280" font-family="ui-monospace, SFMono-Regular, Menlo, Monaco, 'Cascadia Mono', 'Liberation Mono', Consolas, monospace" font-size="10.5">DATE_ADD(DATE &#x27;2024-01-01&#x27;, EXTRACT_DAYS(INTERVAL &#x27;604800000000&#x27;))</text></g>
</svg>
