<svg xmlns="http://www.w3.org/2000/svg" xmlns:xlink="http://www.w3.org/1999/xlink" viewBox="0 0 1096 270" width="1096" height="270" font-family="ui-sans-serif, system-ui, -apple-system, 'Segoe UI', Roboto, Helvetica, Arial, sans-serif" font-size="12" shape-rendering="geometricPrecision" text-rendering="geometricPrecision">
<rect x="0" y="0" width="1096" height="270" fill="#ffffff"/>
<defs>
<marker id="arr-IDENTITY" viewBox="0 0 10 10" refX="9" refY="5" markerWidth="6" markerHeight="6" orient="auto-start-reverse"><path d="M0,0 L10,5 L0,10 z" fill="#6b7280"/></marker>
<marker id="arr-EXPRESSION" viewBox="0 0 10 10" refX="9" refY="5" markerWidth="6" markerHeight="6" orient="auto-start-reverse"><path d="M0,0 L10,5 L0,10 z" fill="#2563eb"/></marker>
<marker id="arr-AGGREGATE" viewBox="0 0 10 10" refX="9" refY="5" markerWidth="6" markerHeight="6" orient="auto-start-reverse"><path d="M0,0 L10,5 L0,10 z" fill="#f59e0b"/></marker>
<marker id="arr-WINDOW" viewBox="0 0 10 10" refX="9" refY="5" markerWidth="6" markerHeight="6" orient="auto-start-reverse"><path d="M0,0 L10,5 L0,10 z" fill="#7c3aed"/></marker>
<marker id="arr-LITERAL" viewBox="0 0 10 10" refX="9" refY="5" markerWidth="6" markerHeight="6" orient="auto-start-reverse"><path d="M0,0 L10,5 L0,10 z" fill="#10b981"/></marker>
<marker id="arr-GROUPING" viewBox="0 0 10 10" refX="9" refY="5" markerWidth="6" markerHeight="6" orient="auto-start-reverse"><path d="M0,0 L10,5 L0,10 z" fill="#dc2626"/></marker>
<marker id="arr-GENERATOR" viewBox="0 0 10 10" refX="9" refY="5" markerWidth="6" markerHeight="6" orient="auto-start-reverse"><path d="M0,0 L10,5 L0,10 z" fill="#14b8a6"/></marker>
<marker id="arr-OUTER_REFERENCE" viewBox="0 0 10 10" refX="9" refY="5" markerWidth="6" markerHeight="6" orient="auto-start-reverse"><path d="M0,0 L10,5 L0,10 z" fill="#94a3b8"/></marker>
</defs>
<g><text x="28" y="46" font-size="18" font-weight="600" fill="#111827">Column lineage  ·  DDL  ·  CreateViewCommand  →  v_sales_total</text><text x="28" y="66" font-size="11" fill="#374151">sources: spark_catalog.default.sales    columns: 2</text></g>
<g font-size="11" fill="#374151"><rect x="28.0" y="69.0" width="12" height="12" rx="2" fill="#6b7280"/><text x="46.0" y="78.0">IDENTITY</text><rect x="118.4" y="69.0" width="12" height="12" rx="2" fill="#2563eb"/><text x="136.4" y="78.0">EXPRESSION</text><rect x="222.4" y="69.0" width="12" height="12" rx="2" fill="#f59e0b"/><text x="240.4" y="78.0">AGGREGATE</text><rect x="319.6" y="69.0" width="12" height="12" rx="2" fill="#7c3aed"/><text x="337.6" y="78.0">WINDOW</text><rect x="396.4" y="69.0" width="12" height="12" rx="2" fill="#10b981"/><text x="414.4" y="78.0">LITERAL</text><rect x="480.0" y="69.0" width="12" height="12" rx="2" fill="#dc2626"/><text x="498.0" y="78.0">GROUPING</text><rect x="570.4" y="69.0" width="12" height="12" rx="2" fill="#14b8a6"/><text x="588.4" y="78.0">GENERATOR</text><rect x="667.6" y="69.0" width="12" height="12" rx="2" fill="#94a3b8"/><text x="685.6" y="78.0">OUTER_REFERENCE</text></g>
<g class="edges">
<path d="M 308.0 179.0 C 407.0 179.0, 429.0 164.0, 528.0 164.0" stroke="#6b7280" stroke-width="1.4" fill="none" opacity="0.85" marker-end="url(#arr-IDENTITY)"/>
<path d="M 308.0 157.0 C 407.0 157.0, 429.0 200.0, 528.0 200.0" stroke="#f59e0b" stroke-width="1.4" fill="none" opacity="0.85" marker-end="url(#arr-AGGREGATE)"/>

</g>
<rect x="28" y="116" width="280" height="80" rx="6" fill="#fafafa" stroke="#cbd5e1" stroke-width="1"/><rect x="28" y="116" width="280" height="30" rx="6" fill="#1f2937"/><rect x="28" y="140" width="280" height="6" fill="#1f2937"/><text x="40" y="135" fill="#f9fafb" font-size="12" font-weight="600">spark_catalog.default.sales</text><rect x="29" y="146" width="278" height="22" fill="#ffffff"/><text x="42" y="161.0" fill="#111827" font-family="ui-monospace, SFMono-Regular, Menlo, Monaco, 'Cascadia Mono', 'Liberation Mono', Consolas, monospace" font-size="11.5">amount</text><circle cx="308.0" cy="157.0" r="3" fill="#475569"/><rect x="29" y="168" width="278" height="22" fill="#f3f4f6"/><text x="42" y="183.0" fill="#111827" font-family="ui-monospace, SFMono-Regular, Menlo, Monaco, 'Cascadia Mono', 'Liberation Mono', Consolas, monospace" font-size="11.5">emp_id</text><circle cx="308.0" cy="179.0" r="3" fill="#475569"/>
<rect x="528" y="116" width="540" height="108" rx="6" fill="#fafafa" stroke="#cbd5e1" stroke-width="1"/><rect x="528" y="116" width="540" height="30" rx="6" fill="#1f2937"/><rect x="528" y="140" width="540" height="6" fill="#1f2937"/><text x="540" y="135" fill="#f9fafb" font-size="12" font-weight="600">Output</text><text x="1056" y="135" text-anchor="end" fill="#cbd5e1" font-size="11">DDL :: CreateViewCommand  →  v_sales_total</text><rect x="529" y="146" width="538" height="36" fill="#ffffff"/><circle cx="528.0" cy="164.0" r="3" fill="#6b7280"/><rect x="538" y="151" width="64.8" height="14" rx="3" fill="#6b7280"/><text x="544" y="161.5" fill="white" font-size="10" font-weight="600">IDENTITY</text><text x="610.8" y="161.5" fill="#111827" font-family="ui-monospace, SFMono-Regular, Menlo, Monaco, 'Cascadia Mono', 'Liberation Mono', Consolas, monospace" font-size="11.5" font-weight="600">emp_id</text><text x="660.8" y="161.5" fill="#6b7280" font-family="ui-monospace, SFMono-Regular, Menlo, Monaco, 'Cascadia Mono', 'Liberation Mono', Consolas, monospace" font-size="10.5">::integer</text><g><title>emp_id :: integer
IDENTITY
spark_catalog.default.sales.emp_id
sources: spark_catalog.default.sales.emp_id</title><text x="546.0" y="174.0" fill="#6b7280" font-family="ui-monospace, SFMono-Regular, Menlo, Monaco, 'Cascadia Mono', 'Liberation Mono', Consolas, monospace" font-size="10.5">spark_catalog.default.sales.emp_id</text></g><rect x="529" y="182" width="538" height="36" fill="#f3f4f6"/><circle cx="528.0" cy="200.0" r="3" fill="#f59e0b"/><rect x="538" y="187" width="71.4" height="14" rx="3" fill="#f59e0b"/><text x="544" y="197.5" fill="white" font-size="10" font-weight="600">AGGREGATE</text><text x="617.4" y="197.5" fill="#111827" font-family="ui-monospace, SFMono-Regular, Menlo, Monaco, 'Cascadia Mono', 'Liberation Mono', Consolas, monospace" font-size="11.5" font-weight="600">total_amount</text><g><title>total_amount :: 
AGGREGATE
SUM(spark_catalog.default.sales.amount)
sources: spark_catalog.default.sales.amount</title><text x="546.0" y="210.0" fill="#6b7280" font-family="ui-monospace, SFMono-Regular, Menlo, Monaco, 'Cascadia Mono', 'Liberation Mono', Consolas, monospace" font-size="10.5">SUM(spark_catalog.default.sales.amount)</text></g>
</svg>
